<?xml version="1.0" encoding="UTF-8"?>
<svg id="Layer_2" data-name="Layer 2" xmlns="http://www.w3.org/2000/svg" viewBox="0 0 456.73 434.76">
  <defs>
    <style>
      .cls-1 {
        fill: #255f8b;
      }

      .cls-2 {
        fill: #fff;
      }

      .cls-3 {
        fill: none;
        stroke: #fff;
        stroke-miterlimit: 10;
        stroke-width: 1.83px;
      }

      .cls-4 {
        fill: #fbaa19;
      }

      .cls-5 {
        opacity: .1;
      }

      .cls-6 {
        fill: #077ea1;
      }

      .cls-7 {
        fill: #243775;
      }

      .cls-8 {
        fill: #bf5a27;
      }

      .cls-9 {
        fill: #010101;
      }
    </style>
  </defs>
  <g id="Layer_1-2" data-name="Layer 1">
    <g>
      <path class="cls-1" d="m456.73,100.99v232.76c0,24.55-31.3,44.45-69.9,44.45h-8.88c-63.54,0-122.25,21.55-154.02,56.54h0s0,0,0,0c-31.77-34.99-90.48-56.55-154.02-56.55-38.61,0-69.9-19.9-69.9-44.45V100.99c0-24.55,31.3-44.45,69.9-44.45h0c63.54,0,122.25-21.55,154.02-56.54,31.77,34.99,90.48,56.54,154.02,56.54h8.88c38.61,0,69.9,19.9,69.9,44.45"/>
      <g class="cls-5">
        <path class="cls-2" d="m385.73,214.69c-6.25-10.48-12.35-21.06-18.3-31.71-1.11-1.99-1.74-4.5-1.77-6.77-.17-12.07-.17-24.15-.02-36.22.04-2.77-.84-4.31-3.27-5.68-10.39-5.81-20.73-11.76-30.94-17.89-2.2-1.32-4.28-3.35-5.6-5.54-6.13-10.2-12.06-20.53-17.85-30.93-1.45-2.61-3.09-3.48-6.03-3.43-12.07.17-24.15.15-36.23,0-2.14-.03-4.49-.65-6.35-1.69-10.66-5.96-21.28-12.02-31.73-18.33-2.63-1.59-4.36-1.37-6.85.12-10.35,6.19-20.81,12.22-31.34,18.09-1.99,1.11-4.5,1.77-6.77,1.8-12.07.17-24.15.17-36.23.02-2.76-.04-4.34.8-5.7,3.24-5.89,10.52-11.9,20.97-18.09,31.31-1.24,2.08-3.19,4.01-5.27,5.26-10.1,6.04-20.28,11.92-30.57,17.63-2.81,1.57-4.06,3.25-3.99,6.64.24,11.77.21,23.54,0,35.32-.04,2.56-.75,5.38-1.99,7.61-5.84,10.54-11.91,20.96-18.05,31.33-1.3,2.2-1.39,3.8-.05,6.06,6.31,10.62,12.46,21.34,18.51,32.11.98,1.73,1.58,3.92,1.6,5.91.15,12.22.18,24.45,0,36.68-.05,3,.94,4.54,3.51,5.97,10.54,5.88,20.98,11.93,31.33,18.12,1.95,1.16,3.76,3.02,4.93,4.98,5.95,9.96,11.79,19.99,17.39,30.15,1.8,3.26,3.76,4.67,7.67,4.57,11.77-.3,23.54-.2,35.32-.04,2.14.03,4.48.67,6.35,1.72,10.79,6.03,21.51,12.2,32.14,18.52,2.14,1.27,3.61,1.26,5.68-.02,5.39-3.32,11.2-6.01,16.37-9.62,12.18-8.48,25.08-13.65,37.3-10.67,8.81,0,14.71-.19,20.58.08,3.27.15,5.13-.85,6.76-3.79,5.75-10.42,11.73-20.72,17.83-30.94,1.17-1.96,2.99-3.81,4.94-4.98,10.23-6.11,20.54-12.07,30.96-17.86,2.71-1.51,3.81-3.16,3.76-6.33-.2-11.77-.21-23.55.02-35.32.05-2.7.9-5.63,2.21-8,5.74-10.42,11.72-20.73,17.8-30.96,1.41-2.38,1.48-4.09.05-6.51m-42.5-84.64c5.45,3.2,12.97,5.23,15.74,10,2.77,4.76.81,12.29.89,18.61.04,3.16,0,6.31,0,9.47-.28.11-.57.21-.86.32-2.38-4.12-4.96-8.13-7.09-12.37-1.37-2.73-3.11-3.6-6.06-3.28-2.95.31-5.97.07-8.99.07,0-.12-.12-.53.02-.67,7.45-7.21,6.26-14.45.19-21.8-1.03-1.25-1.66-2.84-2.03-5.02,2.73,1.55,5.48,3.08,8.19,4.67m-12.65,101.47c-11.5.76-22.31,1.49-33.13,2.14-.99.06-2.18-.14-2.98-.67-7.39-4.86-14.72-9.82-22.55-15.08,7.65-5.13,14.63-9.86,21.68-14.49,1.07-.7,2.48-1.4,3.69-1.32,10.82.63,21.63,1.44,32.47,2.19.88,3.19.96,6.69,2.7,8.93,1.65,2.14,5,2.95,8.52,4.84-6.81,2.41-11.96,5.54-10.39,13.45m-5.59,44.34q-10.59.47-15.87,6.73c-7.12-3.48-14.23-7.38-21.69-10.45-6.81-2.81-11.4-7.07-14-14.06-2.02-5.44-5.02-10.52-7.87-16.31,9.44-.66,18.38-1.31,27.32-1.87.82-.05,1.79.35,2.5.82,9.14,6.09,18.25,12.22,27.86,18.67-5.65,5.98-2.21,11.23,1.75,16.48m-158.85,33.49c-1.01-2.53-3.83-4.32-6.35-6.97,4.67-9.48,9.42-19.19,14.24-28.86.44-.88,1.17-1.85,2.01-2.28,7.9-3.98,15.86-7.85,24.44-12.06.65,9.58,1.29,18.53,1.83,27.48.05.8-.4,1.75-.88,2.46-5.99,9.02-12.03,18.01-18.43,27.55-5.97-4.75-11.34-2.84-16.64,2.44,0-3.98.79-7.23-.22-9.76m-40.09-50.43c9.07-6.08,18.17-12.23,27.34-18.27.91-.6,2.28-.79,3.41-.73,8.42.53,16.85,1.16,26.04,1.82-1.48,3.23-3.14,6.02-4.1,9.04-4.03,12.63-12.39,20.67-24.89,24.95-4.94,1.69-9.49,4.5-14.14,6.76q-6.1-6.12-15.92-6.67c1.74-2.85,4.27-5.34,4.69-8.14.39-2.63-1.46-5.58-2.43-8.77m-19.05-40.86c6.96-2.86,12.77-5.28,10.78-13.64,8.32-.6,16.17-.65,23.82-1.87,8.22-1.31,14.89.8,21.2,5.92,4.17,3.38,8.89,6.08,13.9,9.45-7.65,5.15-14.62,9.88-21.67,14.51-1.07.7-2.5,1.28-3.73,1.22-10.83-.6-21.64-1.35-33.1-2.11,1.04-7.57-3.32-11.26-11.2-13.47m14.96-36.77c7.48,4.67,14.69,9.76,23,15.35-11.29.79-21.4,1.5-31.77,2.24-.24,1.98-.62,3.6-.62,5.22,0,3.73-1.54,6.23-5.15,7.47-2.22.77-4.73,2.96-6.48,2.44-3.96-1.18-7.61-3.54-11.21-5.71-.7-.42-.84-2.14-.85-3.27-.08-7.08-.12-14.17.02-21.25.04-1.57.55-3.26,1.31-4.65,3.2-5.79,6.7-11.42,9.84-17.24,1.35-2.51,3.05-3.49,5.77-2.99.88.15,1.85.28,2.7.08,7.84-1.81,10.67,3.93,13.19,9.29.75,1.59-.62,4.51-1.61,6.51-1.48,2.97-1.14,4.64,1.85,6.51m44.03-64.48c5.64,4.26,10.69,7.97,16.81,2.04,6.58,9.84,12.87,19.19,19.1,28.58.37.56.45,1.44.41,2.15-.57,8.83-1.18,17.65-1.83,27.07-8.48-4.17-16.44-8.05-24.35-12.04-.85-.43-1.62-1.35-2.06-2.23-4.83-9.68-9.59-19.4-14.81-30,8.41-2.23,7.32-8.63,6.73-15.58m10.89,118.6c-4.34-.3-8.68-.54-14.45-.9,6.79-4.56,12.42-8.42,18.18-12.1.71-.45,2.26-.2,3.11.28,2.21,1.23,4.24,2.77,6.48,4.29q-4.13,9.07-13.33,8.42m15.48,7.03c2.2-.19,4.45.21,6.45.35.36.6.6.84.63,1.1q.86,8.87-6.97,12.72c-4.05,1.99-8.11,3.96-13.39,6.52,3.48-7.1,6.26-13.07,9.38-18.85.57-1.05,2.53-1.73,3.9-1.85m-10.42-28.07c-6.11-4.09-12.19-8.16-19.48-13.04,8.28-.55,15.3-1.14,22.33-1.34.89-.02,2,1.89,2.72,3.08.99,1.66,1.7,3.49,2.77,5.74-2.92,1.94-5.52,3.67-8.33,5.55m6.45-22.87c-3.04-5.83-5.86-11.77-9.33-18.86,7.06,3.45,13,6.25,18.79,9.31.99.53,1.84,2.18,1.93,3.38.19,2.35-.2,4.76-.37,7.61-2.76.21-5.42.62-8.06.5-1.04-.04-2.48-1-2.97-1.94m-17.55-22.17c4.01,8.02,7.96,16.07,12.23,24.72-9.71.69-18.66,1.34-27.61,1.91-.68.05-1.48-.34-2.08-.74-9.13-6.1-18.24-12.23-27.26-18.28q2.22-8.54-2.2-17.21c6.61.96,12.61.69,15.22-6.73,10.41,5.12,20.27,9.96,30.1,14.84.64.32,1.3.88,1.61,1.5m21.36,67.09c1.92-3.95,3.66-7.49,5.53-11.33-3.37-2.32-6.67-4.59-10.41-7.17,3.61-2.51,6.89-4.77,10.37-7.19-1.77-3.69-3.49-7.28-5.44-11.33,4.37-.36,8.34-.7,12.48-1.04.37-4.14.71-7.98,1.12-12.49,3.91,1.87,7.37,3.52,11.27,5.39,2.31-3.34,4.58-6.61,7.19-10.38,2.45,3.57,4.7,6.83,7.12,10.35,3.81-1.8,7.41-3.5,11.39-5.38.27,3.57.62,6.53.67,9.49.05,2.54,1.23,3.41,3.62,3.42,2.83.03,5.66.3,9.19.51-1.85,3.98-3.46,7.45-5.3,11.42,3.2,2.24,6.47,4.54,10.32,7.25-3.45,2.35-6.71,4.57-10.39,7.06,1.71,3.64,3.41,7.22,5.36,11.37-4.35.38-8.19.71-12.42,1.08-.35,4.01-.69,7.87-1.08,12.42-3.77-1.75-7.35-3.42-11.36-5.28-2.28,3.3-4.55,6.58-7.14,10.33-2.51-3.66-4.77-6.95-7.12-10.37-3.8,1.81-7.31,3.48-11.3,5.38-.39-4.25-.73-8.12-1.13-12.46-3.93-.33-7.91-.66-12.55-1.04m46.87-88.23c-4.7,7.18-9.53,14.28-14.77,22.08-5.24-7.82-10.2-15.17-15.05-22.57-.53-.81-.74-1.99-.68-2.97.64-10.82,1.38-21.64,2.07-32.28,3.27-.94,6.77-1.08,9.02-2.83,2.15-1.66,3-5,4.64-8.02.83,1.5,1.53,2.46,1.94,3.53,1.49,3.96,3.73,6.73,8.51,6.37,2.38-.18,3.31,1.18,3.45,3.6.56,9.79,1.34,19.56,1.91,29.35.08,1.24-.37,2.7-1.05,3.75m1.83,7.78c.51,8.01,1.08,14.82,1.28,21.64.03,1.03-1.4,2.4-2.48,3.11-1.86,1.21-3.98,2.01-6.25,3.11-1.9-2.79-3.67-5.38-5.64-8.27,4.11-6.14,8.24-12.33,13.09-19.59m-20.92,18.42c.4.61.1,2-.34,2.76-1.28,2.18-2.8,4.23-4.23,6.34-.7,0-.87.05-.99,0q-8.12-3.65-7.65-12.61c.24-4.48.58-8.96.96-14.72,4.54,6.71,8.47,12.42,12.24,18.25m69.2-41.73c-4.99,10.19-9.7,19.9-14.53,29.55-.56,1.11-1.68,2.15-2.8,2.72-7.64,3.87-15.35,7.6-23.7,11.71-.48-6.81-.57-13.23-1.47-19.52-.95-6.55.75-11.84,4.74-17.05,5.02-6.55,9.32-13.64,14.26-20.98,5.99,5.04,11.31,2.6,17.38-2.93-1.91,8.05-1.18,13.79,6.13,16.52m34.18,43.7c-9.82,6.58-19.16,12.84-28.54,19.07-.58.38-1.43.57-2.12.53-8.84-.58-17.67-1.22-27.16-1.9,4.11-8.35,7.84-16.05,11.73-23.67.63-1.22,1.85-2.4,3.09-3.02,9.41-4.73,18.89-9.32,28.42-14,2.23,2.24,4.05,5.22,6.66,6.35,2.51,1.08,5.84.23,9.59.23-3.91,5.29-7.66,10.35-1.67,16.42m-74.24,68.74c-.24-3.11,2.41-2.21,4.18-2.63,4.64-1.11,7.09.8,8.78,5.13,1.95,4.99,4.62,9.7,7.48,15.57-7.01-3.42-12.96-6.28-18.85-9.25-4.29-2.17-1.36-5.85-1.59-8.82m12.64-11.25c-1.27-2-2.16-4.24-3.19-6.35.17-.34.22-.69.44-.85q7.35-5.5,15.06-.31c3.59,2.42,7.17,4.84,12.01,8.11-7.98.57-14.68,1.14-21.39,1.42-.97.04-2.34-1.07-2.94-2.02m-3.38-25.03q4.32-9.29,14.12-8.42c4.03.36,8.07.6,12.11.91.09,0,.17.24.46.71-6.03,4.06-12.07,8.13-18.37,12.36-2.72-1.81-5.43-3.62-8.32-5.56m-6.82-15.81c-.85.02-2.12-2.24-2.57-3.65-1.49-4.61.22-7.41,4.88-9.18,5.03-1.92,9.76-4.64,15.72-7.55-3.42,6.95-6.28,12.86-9.23,18.75-2.13,4.24-5.85,1.55-8.8,1.63m-9.62,72.22c-.35,4.41-.67,8.83-1.09,14.43-4.71-6.99-8.77-13.01-13.03-19.34,1.79-2.66,3.6-5.34,5.32-7.9.62,0,.95-.09,1.19.01q8.33,3.66,7.61,12.79m-33.97-9.68c2.15-1.32,4.52-2.3,7-3.53q6.1,7.86.98,15.47c-2.48,3.69-4.95,7.38-8.15,12.14-.6-8.02-1.17-14.69-1.51-21.38-.04-.89.85-2.19,1.67-2.7m1.64,31.98c4.68-7.18,9.51-14.27,14.7-22.01,5.4,8.06,10.55,15.72,15.66,23.42.3.45.29,1.17.25,1.76-.75,10.96-1.53,21.92-2.35,33.42-7.76-1.22-11.04,3.47-13.35,10.77-3.03-6.47-5.32-12.75-13.8-10.35-.78-11.88-1.52-22.55-2.12-33.23-.07-1.25.33-2.73,1.01-3.77m20.16,49.03c1.46-4.92,4.76-7.39,9.94-7.06,3.31.21,3.91-1.69,4.05-4.47.45-8.85,1.09-17.69,1.74-27.87,6.4,9.51,12.07,17.93,17.76,26.37,1.06-.34,1.89-.4,2.44-.83,6.02-4.66,10.88-1.42,15.6,2.29.82.64,1.48,1.86,1.63,2.89,1.59,11.77,1.24,11.3-8.8,17.95-9.06,6-18.4,8.48-29.25,7.83-12-.73-12.14-.12-16.36-11.45-.56-1.53.68-3.79,1.24-5.66m53.29-17.02c-6-5.24-11.26-8.1-17.34-2.77-6.47-9.62-12.59-18.71-18.66-27.84-.47-.7-.81-1.69-.76-2.51.53-8.83,1.15-17.66,1.81-27.32,8.65,4.27,16.81,8.28,24.94,12.36.61.31,1.11,1.03,1.43,1.67,4.84,9.81,9.64,19.65,14.7,29.99-7.36,2.73-8.03,8.49-6.13,16.43m55.36-109.61c-.94-.65-1.64-2.02-1.91-3.19-.56-2.47-.75-5.02-1.15-7.96-5.5-.35-10.46-.64-15.43-.98-4.93-.34-9.86-.72-16.22-1.18,9.35-6.31,17.69-11.94,26.34-17.79-.79-1.92-1.42-3.9-2.39-5.7-1.43-2.65-1.61-4.97.53-7.4,1.76-2,2.85-5.58,4.88-6.15,3.96-1.1,8.36-.71,12.58-.63.84.01,1.87,1.33,2.43,2.27,3.61,6.09,7.18,12.21,10.59,18.41.75,1.37,1.12,3.11,1.15,4.68.12,6.79.24,13.59-.08,20.37-.08,1.65-1.67,3.34-2.85,4.78-.61.75-1.98.83-2.74,1.52-5.63,5-10.76,2.41-15.74-1.05m-3.18-71.22c.98,2.22,1.36,3.79-.27,5.65-.69.78-1.37,1.69-1.67,2.67-2.29,7.37-8.32,7.13-14.22,6.89-1.11-.04-2.41-1.01-3.22-1.92-1.69-1.87-3.11-3.98-4.83-6.22-9.34,4.57-18.43,9.01-28.59,13.98,4.99-10.2,9.43-19.3,13.94-28.54-1.57-1.24-2.86-2.55-4.41-3.41-3.17-1.78-4.31-4.28-3.69-7.81.41-2.32-.33-5.62.98-6.86,3.12-2.95,7.13-4.97,10.85-7.24.44-.27,1.41.15,2.05.42.83.35,1.54.98,2.37,1.31,14.75,5.92,24.43,16.76,30.72,31.08m-50.62-56.44c5.99.11,13.06-1.6,17.65,1.01,4.42,2.52,6.3,9.53,9.28,14.58,1.82,3.1,3.6,6.23,5.4,9.35-.18.19-.37.38-.56.57-4.15-2.4-8.41-4.63-12.41-7.24-2.51-1.64-4.46-1.72-6.85.17-2.32,1.83-4.98,3.24-7.5,4.83-.29-.45-.61-.72-.56-.89,2.64-9.99-2.08-15.67-10.98-19.02-1.51-.57-2.84-1.6-4.19-3.37,3.57,0,7.15-.05,10.72.02m-10.41,7.5c7,4.11,10.64,8.09,8.99,16.34-.51,2.56-1.38,4.03-3.26,5.81-5.51,5.22-10.84,3.32-16.45.02-5.84,8.67-11.46,17.02-17.75,26.37-.28-2.38-.51-3.86-.6-5.34-.49-7.53-1.03-15.05-1.37-22.59-.12-2.74-1.02-4.36-3.96-4.04-7.67.83-9.17-5.36-11.54-10.33-.46-.98.58-2.69.96-4.05,2.25-8,7.31-10.06,15.63-10.04,10.81.01,20.01,2.38,29.35,7.86m-72.52-15.33c2.85-1.69,5.72-3.36,8.61-4.98,4.71-2.65,9.47-7.33,14.19-7.3,4.73.03,9.45,4.75,14.15,7.45,3.47,1.99,6.91,4.03,10.2,6.95-4.71,0-9.44.2-14.14-.07-2.97-.17-4.76.68-5.92,3.49-1.15,2.76-2.72,5.35-4.44,8.64-3.28-12.93-12.47-13.03-22.22-12.06-.74.08-1.5.01-3.17.01,1.32-1.03,1.98-1.67,2.73-2.12m-15.72,9.13c1.37-.76,3.09-1.22,4.67-1.25,6.79-.13,13.58-.24,20.36.08,1.67.08,3.39,1.63,4.86,2.78.75.59.85,1.96,1.53,2.72,4.97,5.58,2.5,10.74-.91,15.75-.64.95-2.01,1.7-3.17,1.97-2.47.58-5.04.78-8,1.2-.73,10.17-1.47,20.29-2.29,31.66-6.37-9.47-11.98-17.82-17.72-26.33-2.15.88-4.16,1.5-5.98,2.48-2.56,1.38-4.61,1.09-7.05-.54-6.09-4.08-8.81-10.25-6.99-17.45.24-.96,1.33-1.92,2.27-2.48,6.09-3.61,12.22-7.17,18.42-10.59m-40.49-.11c.37-.62,1.48-1.12,2.25-1.13,8.96-.08,17.91-.05,27.13.84-3.68,2.13-7.26,4.5-11.08,6.32-3.58,1.71-5.33,3.83-4.44,8.03.52,2.44.09,5.07.09,7.74-.45,0-.65.07-.72,0-7.67-7.83-15.16-5.83-22.66.31-1.12.92-2.54,1.47-5.02,2.87,5.22-9.07,9.78-17.06,14.45-24.98m-21.33,36.99c.73-1.22,1.94-2.3,3.18-3.03,5.94-3.56,11.89-7.1,18.01-10.32,1.35-.71,3.46-.37,5.11,0,1.24.28,2.22,1.63,3.47,2.04,7.2,2.38,6.68,8.37,6.55,14.06-.02,1.08-1.09,2.34-2.01,3.15-1.88,1.69-3.99,3.12-6.2,4.82,4.59,9.38,9.06,18.5,14,28.61-9.92-4.85-19.02-9.3-28.81-14.09-2.98,7.38-9.12,10.61-15.92,7.62-4.2-1.85-6.78-7.36-10-11.13,4.48-7.74,8.48-14.78,12.64-21.74m-35.54,115.95c.34-6.22,1.33-10.09,7.58-12.69,8.12-3.37,15.49.25,16.49,9.14.13,1.18.35,2.35.62,4.09,10.35.73,20.36,1.43,31.69,2.23-7.01,4.71-13.03,8.75-19.05,12.79-.88.59-1.7,1.3-2.64,1.74-3.91,1.86-4.89,4.12-2.72,8.4,3.32,6.55-2.16,13.89-9.56,14.82-6.8.85-10.1-1.65-13.75-7.37-6.62-10.36-9.32-20.96-8.65-33.16m26.9,64.69c-2.66-5.24-3.07-8.65.43-13.46,5.62-7.74,13.41-8.32,19.3-.71.73.94,1.53,1.83,2.53,3.02,9.42-4.62,18.44-9.04,28.47-13.94-4.93,10.09-9.39,19.19-13.97,28.57,1.37,1.08,2.54,2.32,3.96,3.06,3.93,2.06,4.49,5.19,4.29,9.36-.19,4.25-1.94,6.48-5.26,8.98-5.19,3.93-9,3.29-14.71.44-11.49-5.71-19.3-14.01-25.05-25.32m31.58,52.29c-.66,0-1.53-.9-1.94-1.6-4.54-7.74-9.02-15.52-13.51-23.29.2-.17.39-.33.59-.49,4.18,2.4,8.48,4.61,12.48,7.28,2.57,1.72,4.5,1.58,6.86-.23,2.34-1.79,4.99-3.19,7.87-5,0,3.04.42,5.62-.09,7.99-.94,4.35.92,6.6,4.61,8.38,3.76,1.81,7.29,4.12,10.79,7.04-9.22,0-18.44.04-27.66-.07m27.03-7.74c-9.35-6.13-9.61-5.74-8.55-16.83.43-4.42,8.72-9.57,12.84-7.95,2.22.88,4.42,1.8,6.88,2.82,5.74-8.53,11.35-16.87,17.7-26.32.82,11.17,1.54,21.2,2.29,31.54,1.04.22,1.63.48,2.19.44,6.57-.54,10.34,2.89,12.09,8.8.49,1.63.45,3.63.01,5.29-2.24,8.35-7.62,10.44-16.25,10.46-10.88.04-20.18-2.33-29.2-8.25m52.15,27.6c-.97.54-2.72.67-3.64.16-7.73-4.29-15.35-8.78-22.91-14.12,4.67,0,9.34-.18,14,.07,3.11.17,5.03-.7,6.22-3.73,1.08-2.74,2.72-5.26,4.27-8.19,3.44,11.87,11.88,13.39,21.94,11.86.83-.12,1.69-.01,2.54-.01.08.32.16.64.24.96-7.54,4.36-15.04,8.77-22.65,13m76.9-21.1c-.51.85-2.28,1.31-3.47,1.33-8.57.11-17.13.06-25.68.06-.12-.28-.23-.57-.35-.85,4.12-2.38,8.16-4.92,12.4-7.07,2.69-1.35,3.64-3.05,3.31-6.04-.33-2.95-.08-5.96-.08-9.49,3.08,1.95,5.83,3.99,8.86,5.48,1.32.65,3.47.73,4.76.09,4.49-2.22,8.77-4.87,13.79-6.67-4.48,7.74-8.9,15.52-13.53,23.17m4.69-25.91c-2.6,1.08-5.54,4.06-7.46,3.45-4.02-1.27-7.68-4.09-11.09-6.78-2.41-1.91-1.11-11.97,1.4-13.93,1.78-1.38,3.58-2.73,5.7-4.34-4.6-9.4-9.03-18.44-14.01-28.59,10.03,4.89,19.1,9.3,28.4,13.84.82-.93,1.8-1.69,2.32-2.69,2.4-4.55,5.87-5.79,11.06-5.39,4.13.32,5.79,2.37,8.04,5.14,4.07,5,3.6,8.94.62,14.7-5.76,11.17-13.33,19.75-25,24.6m46.18-26.54c-6.54,3.14-12.67,7.13-19.53,10.17,2.95-5.15,5.9-10.3,9-15.71-2.41-3.88-4.69-7.52-7.16-11.49,1.14-.06,1.74-.24,2.27-.1,8.79,2.46,14.15-1.11,17.09-9.39.73-2.06,2.18-3.85,4.18-5.65,0,7.23-.38,14.5.13,21.7.37,5.2-1.2,8.18-5.97,10.48m-2.14-31.33c-6.25,9.32-6.34,9.93-17.47,8.3-3.71-.54-8.64-9.13-7.23-12.66.88-2.22,1.82-4.43,2.89-7.05-8.63-5.8-16.98-11.4-26.38-17.73,11.28-.82,21.37-1.54,31.58-2.28.2-1.17.54-2.06.46-2.9-.82-7.36,4.38-9.89,9.82-11.87,1.46-.53,3.56.51,5.32.99,7.55,2.09,9.2,6.97,9.33,14.68.19,11.29-2,21.09-8.32,30.52m23.26-40.34c-3.48,4.44-5.82,9.77-9.57,14.63,0-4.36-.32-8.75.09-13.08.39-4.11-1-6.48-4.82-7.89-2.34-.86-4.48-2.27-7.22-3.69,1.26-.75,1.93-1.37,2.71-1.58,8.07-2.21,10.62-7.59,9.3-15.51-.41-2.45-.06-5.03.75-7.89,2.88,4.95,5.25,10.28,8.74,14.75,5.47,7.02,5.54,13.22.02,20.26"/>
        <path class="cls-4" d="m250.94,225.01c1.72,3.64,3.41,7.22,5.36,11.37-4.35.38-8.19.71-12.42,1.08-.35,4.01-.69,7.87-1.08,12.42-3.77-1.75-7.35-3.42-11.36-5.28-2.28,3.3-4.55,6.58-7.14,10.33-2.51-3.66-4.77-6.95-7.12-10.37-3.8,1.81-7.31,3.48-11.3,5.38-.38-4.25-.73-8.12-1.13-12.46-3.93-.32-7.91-.66-12.55-1.04,1.92-3.95,3.66-7.49,5.53-11.33-3.37-2.32-6.67-4.59-10.41-7.17,3.61-2.51,6.89-4.77,10.37-7.19-1.77-3.69-3.49-7.28-5.44-11.33,4.37-.36,8.34-.7,12.48-1.04.37-4.14.72-7.98,1.12-12.49,3.91,1.87,7.37,3.52,11.28,5.39,2.31-3.34,4.58-6.61,7.19-10.38,2.45,3.57,4.7,6.83,7.12,10.35,3.81-1.8,7.41-3.5,11.39-5.38.27,3.57.62,6.53.67,9.49.05,2.54,1.23,3.41,3.62,3.43,2.83.03,5.66.3,9.19.51-1.85,3.98-3.46,7.45-5.3,11.42,3.2,2.24,6.47,4.54,10.32,7.25-3.46,2.35-6.71,4.57-10.39,7.06"/>
        <path class="cls-9" d="m190.27,208.82c-2.92,1.94-5.52,3.67-8.33,5.55-6.11-4.09-12.19-8.16-19.48-13.04,8.28-.55,15.3-1.14,22.33-1.34.89-.02,2,1.89,2.71,3.08.99,1.66,1.7,3.49,2.77,5.74"/>
        <path class="cls-9" d="m190.21,226.99q-4.13,9.07-13.33,8.42c-4.34-.3-8.68-.54-14.45-.9,6.79-4.56,12.42-8.42,18.18-12.1.71-.45,2.26-.2,3.11.28,2.21,1.23,4.24,2.77,6.48,4.29"/>
        <path class="cls-9" d="m192.46,256.62c-4.05,1.99-8.11,3.96-13.39,6.52,3.48-7.1,6.26-13.07,9.38-18.85.57-1.05,2.53-1.73,3.9-1.85,2.2-.2,4.46.21,6.45.35.36.6.6.84.63,1.1q.86,8.87-6.97,12.72"/>
        <path class="cls-9" d="m215.95,267.51c-2.48,3.69-4.95,7.38-8.15,12.14-.6-8.02-1.16-14.69-1.51-21.38-.04-.89.85-2.19,1.67-2.7,2.15-1.32,4.52-2.3,7-3.53q6.11,7.86.98,15.47"/>
        <path class="cls-9" d="m241.94,265.25c-.35,4.41-.67,8.83-1.09,14.43-4.71-6.99-8.77-13.01-13.03-19.34,1.79-2.66,3.6-5.34,5.32-7.9.62,0,.95-.09,1.2.01q8.33,3.66,7.61,12.8"/>
        <path class="cls-9" d="m269.56,263.18c-7.01-3.43-12.96-6.28-18.85-9.25-4.29-2.16-1.36-5.84-1.59-8.82-.24-3.11,2.41-2.21,4.18-2.63,4.64-1.11,7.09.8,8.78,5.14,1.95,4.99,4.62,9.7,7.48,15.57"/>
        <path class="cls-9" d="m286.08,234.46c-7.98.57-14.68,1.14-21.38,1.42-.97.04-2.34-1.07-2.94-2.02-1.27-2-2.16-4.24-3.19-6.35.17-.34.22-.69.44-.85q7.35-5.5,15.06-.31c3.59,2.42,7.17,4.84,12.01,8.11"/>
        <path class="cls-9" d="m285.07,202.04c-6.03,4.06-12.07,8.13-18.37,12.36-2.72-1.81-5.42-3.62-8.32-5.56q4.32-9.29,14.12-8.42c4.03.36,8.08.6,12.11.91.09,0,.17.24.46.71"/>
        <path class="cls-9" d="m269.58,172.65c-3.42,6.95-6.28,12.87-9.23,18.75-2.13,4.24-5.85,1.55-8.8,1.63-.85.02-2.12-2.24-2.57-3.65-1.49-4.61.22-7.41,4.88-9.18,5.03-1.92,9.76-4.64,15.72-7.55"/>
        <path class="cls-9" d="m242.18,177.62c.03,1.03-1.4,2.4-2.48,3.11-1.86,1.21-3.98,2.01-6.25,3.11-1.9-2.79-3.67-5.38-5.64-8.27,4.11-6.14,8.24-12.33,13.09-19.59.51,8.01,1.08,14.82,1.28,21.64"/>
        <path class="cls-9" d="m219.64,177.16c-1.28,2.18-2.8,4.23-4.23,6.34-.7,0-.87.05-.99,0q-8.12-3.65-7.65-12.61c.24-4.48.58-8.96.96-14.72,4.54,6.71,8.47,12.42,12.24,18.25.4.61.1,2-.34,2.76"/>
        <path class="cls-9" d="m199.41,192.95c-2.76.21-5.42.62-8.06.5-1.04-.04-2.48-1-2.97-1.94-3.03-5.83-5.86-11.77-9.33-18.86,7.06,3.45,13,6.25,18.79,9.31.99.53,1.84,2.18,1.93,3.38.19,2.35-.19,4.76-.37,7.61"/>
        <path class="cls-7" d="m176.69,217.91c-7.65,5.15-14.62,9.88-21.67,14.51-1.07.7-2.5,1.28-3.73,1.22-10.82-.6-21.64-1.35-33.1-2.11,1.04-7.57-3.32-11.26-11.2-13.47,6.96-2.86,12.77-5.28,10.78-13.64,8.32-.6,16.17-.65,23.82-1.87,8.22-1.31,14.9.8,21.2,5.92,4.17,3.38,8.89,6.08,13.89,9.45"/>
        <path class="cls-7" d="m182.84,241.74c-1.48,3.23-3.14,6.02-4.1,9.04-4.03,12.64-12.39,20.67-24.89,24.95-4.94,1.69-9.49,4.5-14.14,6.76q-6.1-6.12-15.92-6.67c1.74-2.85,4.27-5.34,4.68-8.14.39-2.63-1.45-5.58-2.42-8.77,9.07-6.08,18.17-12.23,27.34-18.27.91-.6,2.28-.79,3.41-.73,8.42.53,16.85,1.16,26.04,1.82"/>
        <path class="cls-7" d="m202.3,286.66c.05.81-.4,1.75-.88,2.46-5.99,9.02-12.03,18.01-18.43,27.55-5.97-4.75-11.34-2.84-16.64,2.44,0-3.98.79-7.23-.22-9.76-1.01-2.53-3.83-4.33-6.35-6.97,4.67-9.48,9.42-19.19,14.24-28.86.44-.88,1.17-1.85,2.01-2.28,7.9-3.98,15.86-7.85,24.44-12.06.65,9.58,1.29,18.53,1.83,27.48"/>
        <path class="cls-7" d="m240.21,290.72c-.75,10.96-1.53,21.92-2.35,33.42-7.76-1.22-11.04,3.47-13.35,10.77-3.03-6.47-5.32-12.75-13.8-10.35-.78-11.88-1.52-22.55-2.12-33.23-.07-1.25.33-2.73,1.01-3.77,4.68-7.18,9.51-14.27,14.7-22.01,5.4,8.06,10.55,15.72,15.66,23.42.3.45.29,1.17.25,1.76"/>
        <path class="cls-7" d="m283.05,319.57c-6-5.23-11.26-8.1-17.34-2.77-6.47-9.62-12.59-18.71-18.66-27.84-.47-.7-.81-1.69-.76-2.51.53-8.83,1.15-17.66,1.81-27.32,8.65,4.27,16.81,8.28,24.94,12.36.61.31,1.11,1.03,1.43,1.67,4.84,9.81,9.64,19.65,14.7,29.98-7.36,2.73-8.03,8.49-6.13,16.43"/>
        <path class="cls-7" d="m324.98,275.85q-10.59.47-15.86,6.73c-7.12-3.48-14.23-7.38-21.69-10.45-6.81-2.81-11.4-7.07-14-14.06-2.02-5.44-5.02-10.52-7.87-16.31,9.44-.66,18.38-1.31,27.32-1.87.82-.05,1.79.35,2.5.82,9.14,6.09,18.25,12.22,27.86,18.68-5.66,5.98-2.21,11.23,1.74,16.47"/>
        <path class="cls-7" d="m330.57,231.52c-11.5.76-22.31,1.49-33.13,2.14-.99.06-2.18-.14-2.98-.67-7.39-4.86-14.72-9.82-22.55-15.08,7.65-5.13,14.63-9.86,21.68-14.49,1.07-.7,2.48-1.4,3.69-1.33,10.82.63,21.63,1.44,32.47,2.19.88,3.19.96,6.69,2.7,8.93,1.65,2.14,5,2.95,8.52,4.84-6.81,2.41-11.96,5.54-10.39,13.45"/>
        <path class="cls-7" d="m323.36,176.37c-9.82,6.58-19.17,12.84-28.54,19.06-.58.38-1.43.57-2.12.53-8.84-.58-17.67-1.22-27.16-1.9,4.11-8.35,7.84-16.05,11.73-23.67.63-1.22,1.85-2.4,3.09-3.02,9.41-4.73,18.89-9.32,28.42-14,2.23,2.24,4.05,5.22,6.66,6.35,2.51,1.08,5.85.23,9.6.23-3.91,5.29-7.66,10.35-1.67,16.42"/>
        <path class="cls-7" d="m289.18,132.68c-4.99,10.19-9.7,19.9-14.53,29.55-.56,1.11-1.68,2.15-2.8,2.72-7.64,3.87-15.35,7.6-23.7,11.71-.48-6.81-.57-13.23-1.47-19.52-.95-6.55.74-11.84,4.74-17.05,5.02-6.55,9.32-13.64,14.26-20.98,5.99,5.04,11.31,2.6,17.38-2.93-1.91,8.05-1.18,13.79,6.13,16.52"/>
        <path class="cls-7" d="m239.07,148.2c-4.7,7.18-9.53,14.28-14.77,22.08-5.24-7.82-10.2-15.17-15.05-22.57-.53-.8-.74-1.99-.68-2.97.64-10.82,1.38-21.64,2.07-32.28,3.27-.94,6.77-1.08,9.02-2.83,2.15-1.66,3-5,4.64-8.02.83,1.5,1.53,2.45,1.94,3.53,1.49,3.96,3.73,6.73,8.51,6.37,2.38-.18,3.31,1.18,3.45,3.6.56,9.79,1.34,19.56,1.91,29.35.08,1.24-.37,2.7-1.05,3.75"/>
        <path class="cls-7" d="m202.31,149.58c-.57,8.83-1.18,17.65-1.83,27.07-8.48-4.17-16.44-8.05-24.35-12.04-.85-.43-1.62-1.36-2.06-2.23-4.83-9.68-9.59-19.4-14.81-30,8.41-2.23,7.32-8.63,6.73-15.58,5.64,4.26,10.69,7.97,16.81,2.04,6.58,9.84,12.87,19.19,19.09,28.58.37.56.46,1.44.41,2.15"/>
        <path class="cls-7" d="m183.07,194.06c-9.71.69-18.66,1.34-27.61,1.9-.68.05-1.48-.34-2.08-.74-9.13-6.1-18.24-12.23-27.26-18.28q2.22-8.54-2.2-17.21c6.61.96,12.61.69,15.22-6.73,10.41,5.12,20.27,9.96,30.1,14.84.64.32,1.3.88,1.61,1.5,4.01,8.02,7.96,16.07,12.23,24.72"/>
        <path class="cls-6" d="m144.97,239.18c-7.01,4.71-13.03,8.75-19.05,12.79-.88.59-1.7,1.3-2.64,1.74-3.91,1.86-4.89,4.12-2.72,8.4,3.32,6.55-2.17,13.89-9.56,14.82-6.8.85-10.1-1.65-13.75-7.36-6.63-10.36-9.32-20.96-8.66-33.16.34-6.22,1.33-10.09,7.58-12.69,8.12-3.37,15.49.25,16.49,9.14.13,1.18.35,2.36.61,4.09,10.35.73,20.36,1.43,31.7,2.23"/>
        <path class="cls-6" d="m160.52,316.99c-.2,4.25-1.94,6.48-5.26,8.99-5.19,3.93-9,3.29-14.71.44-11.49-5.71-19.3-14.01-25.05-25.32-2.66-5.24-3.07-8.65.43-13.46,5.62-7.74,13.41-8.32,19.3-.71.73.94,1.53,1.83,2.53,3.02,9.42-4.62,18.44-9.04,28.47-13.94-4.93,10.09-9.39,19.19-13.97,28.57,1.37,1.08,2.54,2.32,3.96,3.06,3.93,2.06,4.49,5.19,4.29,9.36"/>
        <path class="cls-6" d="m219.58,343.43c-2.24,8.35-7.63,10.44-16.25,10.46-10.88.04-20.18-2.33-29.2-8.25-9.35-6.13-9.61-5.74-8.55-16.83.43-4.42,8.72-9.57,12.84-7.94,2.22.88,4.42,1.8,6.89,2.81,5.74-8.53,11.34-16.86,17.7-26.32.82,11.17,1.54,21.2,2.3,31.54,1.04.22,1.63.49,2.19.44,6.57-.54,10.34,2.89,12.09,8.8.49,1.63.46,3.63.01,5.29"/>
        <path class="cls-6" d="m274.14,345.86c-9.06,6-18.4,8.48-29.25,7.83-12-.73-12.14-.12-16.36-11.45-.56-1.53.68-3.79,1.24-5.66,1.46-4.92,4.76-7.39,9.94-7.06,3.31.21,3.91-1.69,4.05-4.47.46-8.85,1.09-17.69,1.74-27.87,6.4,9.51,12.07,17.93,17.76,26.37,1.06-.34,1.89-.4,2.44-.83,6.02-4.66,10.88-1.42,15.6,2.29.82.64,1.48,1.86,1.63,2.89,1.59,11.77,1.24,11.3-8.8,17.95"/>
        <path class="cls-6" d="m332.85,301.64c-5.76,11.17-13.33,19.75-25,24.6-2.6,1.08-5.54,4.06-7.46,3.45-4.02-1.27-7.68-4.09-11.09-6.78-2.41-1.91-1.11-11.97,1.4-13.93,1.78-1.38,3.58-2.73,5.7-4.34-4.6-9.4-9.03-18.44-14.01-28.59,10.03,4.89,19.1,9.3,28.4,13.84.82-.94,1.8-1.69,2.32-2.69,2.4-4.56,5.87-5.78,11.06-5.39,4.13.32,5.79,2.37,8.04,5.14,4.07,5,3.6,8.94.62,14.7"/>
        <path class="cls-6" d="m351.89,268.36c-6.25,9.32-6.34,9.93-17.47,8.3-3.71-.54-8.64-9.13-7.23-12.66.88-2.22,1.82-4.43,2.89-7.05-8.63-5.8-16.98-11.4-26.38-17.73,11.28-.82,21.37-1.54,31.58-2.28.19-1.17.54-2.06.45-2.9-.82-7.36,4.38-9.89,9.83-11.87,1.46-.53,3.56.51,5.32.99,7.55,2.09,9.2,6.97,9.33,14.68.19,11.29-2,21.09-8.32,30.52"/>
        <path class="cls-6" d="m359.73,204.71c-.08,1.65-1.67,3.34-2.85,4.78-.61.75-1.98.83-2.74,1.51-5.63,5-10.76,2.41-15.74-1.05-.94-.65-1.64-2.02-1.9-3.19-.56-2.47-.75-5.02-1.15-7.96-5.49-.35-10.46-.64-15.43-.98-4.93-.34-9.86-.71-16.22-1.18,9.35-6.31,17.69-11.94,26.34-17.79-.79-1.92-1.42-3.9-2.39-5.7-1.43-2.65-1.61-4.97.53-7.4,1.76-2,2.85-5.58,4.88-6.15,3.96-1.1,8.36-.72,12.58-.63.84.01,1.87,1.33,2.43,2.27,3.61,6.09,7.18,12.21,10.59,18.41.75,1.37,1.12,3.11,1.15,4.68.12,6.79.24,13.59-.08,20.37"/>
        <path class="cls-6" d="m334.95,144.39c-.69.78-1.37,1.69-1.67,2.67-2.29,7.37-8.32,7.13-14.22,6.89-1.11-.04-2.41-1.01-3.22-1.92-1.69-1.87-3.11-3.97-4.83-6.22-9.34,4.57-18.43,9.01-28.59,13.98,4.99-10.2,9.43-19.3,13.94-28.54-1.57-1.24-2.86-2.55-4.41-3.41-3.17-1.77-4.31-4.28-3.69-7.81.41-2.32-.32-5.62.98-6.86,3.12-2.95,7.13-4.97,10.85-7.24.44-.27,1.41.15,2.05.42.83.35,1.54.98,2.37,1.31,14.75,5.92,24.43,16.76,30.72,31.08.98,2.22,1.36,3.79-.27,5.65"/>
        <path class="cls-6" d="m283.18,106.13c-.51,2.56-1.38,4.03-3.26,5.81-5.51,5.22-10.84,3.32-16.45.02-5.84,8.67-11.46,17.02-17.75,26.36-.28-2.38-.51-3.86-.6-5.34-.49-7.53-1.03-15.05-1.37-22.59-.12-2.75-1.02-4.36-3.96-4.04-7.67.83-9.17-5.36-11.54-10.33-.46-.98.58-2.69.96-4.05,2.25-8,7.31-10.06,15.63-10.04,10.81.01,20.01,2.38,29.35,7.86,7,4.11,10.64,8.09,8.99,16.34"/>
        <path class="cls-6" d="m216.47,103.67c-.64.95-2.01,1.7-3.17,1.97-2.47.58-5.04.78-8,1.2-.73,10.17-1.47,20.29-2.29,31.66-6.37-9.47-11.98-17.82-17.72-26.33-2.15.88-4.16,1.5-5.98,2.48-2.55,1.38-4.61,1.09-7.05-.54-6.09-4.08-8.81-10.25-6.99-17.45.24-.96,1.33-1.92,2.27-2.48,6.09-3.61,12.22-7.17,18.42-10.59,1.37-.76,3.09-1.22,4.67-1.25,6.79-.13,13.58-.24,20.36.08,1.67.08,3.39,1.63,4.86,2.78.75.59.85,1.96,1.53,2.72,4.97,5.58,2.5,10.74-.91,15.75"/>
        <path class="cls-6" d="m166.24,159.8c-9.92-4.85-19.02-9.3-28.81-14.09-2.98,7.38-9.12,10.61-15.92,7.62-4.2-1.85-6.78-7.36-10-11.13,4.48-7.74,8.48-14.78,12.63-21.74.73-1.22,1.94-2.3,3.18-3.03,5.94-3.56,11.89-7.1,18.01-10.32,1.35-.71,3.46-.37,5.1,0,1.24.28,2.22,1.63,3.47,2.04,7.2,2.38,6.68,8.37,6.55,14.06-.02,1.08-1.09,2.34-2.01,3.15-1.88,1.69-3.99,3.12-6.2,4.82,4.59,9.38,9.06,18.5,14,28.61"/>
        <path class="cls-6" d="m144.96,196.64c-11.29.79-21.4,1.5-31.77,2.24-.24,1.98-.62,3.6-.62,5.22,0,3.73-1.54,6.23-5.15,7.47-2.22.77-4.73,2.96-6.48,2.44-3.96-1.18-7.61-3.54-11.21-5.71-.7-.42-.84-2.14-.85-3.27-.08-7.08-.12-14.17.02-21.25.04-1.57.55-3.26,1.31-4.65,3.2-5.79,6.7-11.42,9.84-17.24,1.35-2.51,3.05-3.49,5.77-2.99.88.15,1.85.28,2.7.08,7.84-1.81,10.67,3.93,13.19,9.29.75,1.59-.62,4.51-1.61,6.51-1.48,2.97-1.14,4.64,1.85,6.51,7.48,4.67,14.69,9.76,23,15.35"/>
        <path class="cls-8" d="m174.74,353.46c-9.22,0-18.44.04-27.66-.07-.66,0-1.53-.91-1.94-1.6-4.54-7.74-9.02-15.52-13.51-23.29.2-.17.39-.33.59-.49,4.18,2.4,8.48,4.61,12.48,7.28,2.57,1.72,4.5,1.58,6.86-.23,2.34-1.79,4.99-3.19,7.87-5,0,3.04.42,5.62-.09,7.99-.94,4.35.92,6.6,4.61,8.38,3.76,1.81,7.29,4.12,10.79,7.04"/>
        <path class="cls-8" d="m248.91,360.24c-7.54,4.36-15.04,8.77-22.65,13-.97.54-2.72.67-3.64.16-7.73-4.29-15.35-8.78-22.91-14.12,4.67,0,9.34-.18,14,.06,3.11.17,5.03-.7,6.22-3.73,1.08-2.74,2.72-5.26,4.27-8.19,3.44,11.87,11.88,13.39,21.94,11.86.83-.13,1.69-.01,2.54-.01.08.32.16.64.24.96"/>
        <path class="cls-8" d="m316.7,328.97c-4.48,7.74-8.9,15.52-13.53,23.17-.51.85-2.28,1.31-3.47,1.33-8.57.11-17.13.06-25.68.06-.12-.28-.23-.57-.35-.85,4.12-2.38,8.16-4.92,12.4-7.07,2.69-1.35,3.64-3.05,3.31-6.04-.33-2.95-.08-5.96-.08-9.49,3.08,1.95,5.83,3.99,8.86,5.48,1.32.65,3.47.73,4.76.09,4.49-2.22,8.77-4.87,13.79-6.67"/>
        <path class="cls-8" d="m354.02,299.69c-6.54,3.14-12.66,7.13-19.53,10.17,2.95-5.15,5.9-10.3,9-15.71-2.41-3.88-4.69-7.52-7.16-11.49,1.14-.06,1.74-.24,2.27-.1,8.78,2.45,14.15-1.11,17.09-9.39.73-2.06,2.18-3.85,4.18-5.65,0,7.23-.38,14.5.13,21.7.37,5.2-1.2,8.18-5.97,10.48"/>
        <path class="cls-8" d="m375.15,228.02c-3.48,4.44-5.82,9.77-9.57,14.63,0-4.36-.32-8.75.09-13.08.39-4.11-1-6.48-4.82-7.89-2.34-.86-4.48-2.27-7.22-3.69,1.26-.75,1.93-1.37,2.71-1.58,8.07-2.21,10.62-7.59,9.3-15.51-.41-2.45-.06-5.03.75-7.89,2.88,4.95,5.25,10.28,8.74,14.75,5.47,7.02,5.54,13.22.02,20.26"/>
        <path class="cls-8" d="m359.86,158.66c.04,3.16,0,6.31,0,9.47-.28.11-.57.21-.86.32-2.38-4.12-4.96-8.13-7.09-12.37-1.37-2.73-3.11-3.6-6.06-3.28-2.95.31-5.97.07-8.99.07,0-.12-.12-.53.02-.67,7.45-7.21,6.26-14.45.19-21.8-1.04-1.25-1.66-2.84-2.04-5.02,2.73,1.55,5.48,3.08,8.19,4.67,5.45,3.2,12.97,5.23,15.74,10,2.77,4.76.81,12.29.89,18.61"/>
        <path class="cls-8" d="m316.93,107.23c-.18.19-.37.38-.56.57-4.15-2.4-8.41-4.63-12.41-7.24-2.51-1.65-4.46-1.72-6.85.17-2.32,1.83-4.98,3.24-7.5,4.83-.29-.45-.61-.72-.56-.89,2.64-9.99-2.08-15.67-10.98-19.02-1.51-.57-2.84-1.6-4.19-3.37,3.57,0,7.15-.05,10.72.02,5.99.11,13.05-1.6,17.65,1.01,4.42,2.52,6.3,9.53,9.27,14.58,1.82,3.1,3.6,6.23,5.4,9.35"/>
        <path class="cls-8" d="m248.82,76.57c-4.71,0-9.44.2-14.14-.07-2.97-.17-4.76.68-5.92,3.49-1.15,2.76-2.72,5.35-4.44,8.64-3.28-12.92-12.47-13.03-22.22-12.06-.74.08-1.5.01-3.17.01,1.32-1.03,1.98-1.67,2.73-2.12,2.85-1.69,5.71-3.36,8.61-4.98,4.71-2.65,9.47-7.33,14.19-7.3,4.73.03,9.45,4.75,14.15,7.45,3.47,1.99,6.91,4.03,10.2,6.95"/>
        <path class="cls-8" d="m174.86,83.19c-3.69,2.13-7.26,4.5-11.09,6.32-3.58,1.71-5.33,3.83-4.44,8.03.51,2.44.09,5.07.09,7.74-.45,0-.65.07-.72,0-7.67-7.83-15.16-5.83-22.66.31-1.12.92-2.54,1.47-5.02,2.87,5.22-9.07,9.78-17.06,14.45-24.98.37-.62,1.48-1.12,2.25-1.13,8.96-.08,17.91-.05,27.13.84"/>
      </g>
      <path class="cls-3" d="m449.27,104.8v225.16c0,23.75-30.27,43-67.62,43h-8.59c-61.46,0-118.25,20.85-148.98,54.69h0s0,0,0,0c-30.73-33.85-87.53-54.7-148.99-54.7-37.34,0-67.62-19.25-67.62-43V104.8c0-23.75,30.27-43,67.62-43h0c61.46,0,118.26-20.85,148.99-54.7,30.73,33.85,87.53,54.7,148.99,54.7h8.59c37.34,0,67.62,19.25,67.62,43Z"/>
      <g>
        <path class="cls-2" d="m243.18,240.67v105.28c0,10.72-2.46,20.21-7.32,28.2-4.39,7.24-10.54,12.99-18.28,17.06-2.16,1.14-4.43,2.13-6.76,2.96l-15.16-28.18c4.71-.81,8.91-3.13,11.88-6.61,3.04-3.56,4.64-8.2,4.64-13.44v-105.28h30.99Z"/>
        <polygon class="cls-2" points="282.77 107.21 282.77 347.18 251.65 347.18 251.65 58.39 282.77 107.21"/>
        <path class="cls-2" d="m122.38,243.85c0,1.33,1.07,2.41,2.41,2.41h15.56v31.13h-50.1l-8.77-32.67h7.38c1.31,0,2.38-1.04,2.41-2.35.34-15.48,6.03-28.43,16.46-37.44,8.73-7.54,20.23-11.89,32.62-12.39v31.07c-9.28,1.02-17.97,7.93-17.97,20.24"/>
        <path class="cls-2" d="m203.82,58.39v288.79h-123.25c-15.6,0-28.75-5.36-38.05-15.5-8.25-9.01-12.99-21.25-13.33-34.46-.23-9.68,1.92-19.09,6.22-27.26,4.56-8.66,11.43-15.55,19.86-19.91.03-.02.06-.02.09-.05,2.75-1.41,5.69-2.58,8.76-3.47.08-.02.16-.04.23-.07.02,0,.04,0,.06-.02.32-.09.63-.18.94-.25.02,0,.02,0,.04,0,.3-.08.6-.16.91-.23.02,0,.02,0,.03,0,.17-.04.32-.08.52-.12.18-.05.37-.09.57-.13,0,0,.03-.02.05-.02.26-.06.52-.11.78-.16l.32-.07c.12-.02.22-.05.33-.07.08-.02.16-.03.24-.05.07,0,.14-.02.22-.03h.02c.76-.14,1.53-.22,2.3-.26l8.78,31.84c-.74-.07-1.47-.09-2.18-.09-.94,0-1.81.05-2.65.15-4.48.51-7.42,2.27-9.19,3.83l-.18.15s-.08.08-.12.12l-.03.03s-.08.08-.12.13c-.41.41-.8.85-1.16,1.29-.02.03-.03.03-.04.06-2.9,3.6-4.48,8.31-4.48,13.27,0,10.06,6.95,20.24,20.24,20.24h89.85c1.33,0,2.4-1.08,2.4-2.4V107.06l31-48.66Z"/>
        <path class="cls-2" d="m426.43,297.22c-.34,13.21-5.08,25.45-13.33,34.46-9.29,10.14-22.45,15.5-38.05,15.5h-84.08v-31.12h84.08c13.29,0,20.24-10.18,20.24-20.24,0-4.96-1.59-9.67-4.48-13.27,0-.02-.03-.03-.04-.06-.36-.44-.75-.88-1.16-1.29-.03-.04-.07-.08-.12-.13,0,0-.02-.02-.03-.02-.04-.04-.08-.08-.12-.13l-.18-.15c-1.77-1.56-4.71-3.32-9.19-3.83h-89.01v-31.93h91.8c.38,0,.77,0,1.16.03.77.03,1.55.12,2.3.26h.02c.08.02.15.02.22.03.08.02.16.03.24.05.12.02.22.04.33.07l.32.07c.27.05.52.1.78.16.02,0,.04,0,.05.02.2.03.39.08.57.13.19.03.35.08.52.12,0,0,.02,0,.03,0,.31.07.61.15.91.23.02,0,.03,0,.04,0,.31.07.62.16.94.25.02,0,.04,0,.06.02.08.03.15.05.23.08,3.07.89,6.02,2.06,8.76,3.47.03.02.06.03.09.05,8.43,4.36,15.3,11.25,19.86,19.91,4.3,8.17,6.46,17.59,6.22,27.26"/>
      </g>
    </g>
  </g>
</svg>